<mxfile host="app.diagrams.net" agent="Mozilla/5.0 (Windows NT 10.0; Win64; x64) AppleWebKit/537.36 (KHTML, like Gecko) Chrome/133.0.0.0 Safari/537.36" version="26.0.16">
  <diagram name="Page-1" id="Qv8gykM19spB9sORM2q8">
    <mxGraphModel dx="1495" dy="1573" grid="0" gridSize="10" guides="1" tooltips="1" connect="1" arrows="1" fold="1" page="0" pageScale="1" pageWidth="827" pageHeight="1169" math="0" shadow="0">
      <root>
        <mxCell id="0" />
        <mxCell id="1" parent="0" />
        <mxCell id="58TWu8AOUMXrwjDCKBES-9" style="edgeStyle=none;curved=1;rounded=0;orthogonalLoop=1;jettySize=auto;html=1;fontSize=12;startSize=8;endSize=8;" edge="1" parent="1" source="58TWu8AOUMXrwjDCKBES-2" target="58TWu8AOUMXrwjDCKBES-8">
          <mxGeometry relative="1" as="geometry" />
        </mxCell>
        <mxCell id="58TWu8AOUMXrwjDCKBES-2" value="Account" style="shape=umlActor;verticalLabelPosition=bottom;verticalAlign=top;html=1;outlineConnect=0;" vertex="1" parent="1">
          <mxGeometry x="-472" y="-314" width="30" height="60" as="geometry" />
        </mxCell>
        <mxCell id="58TWu8AOUMXrwjDCKBES-3" value="" style="swimlane;startSize=0;" vertex="1" parent="1">
          <mxGeometry x="-312" y="-424" width="390" height="248" as="geometry">
            <mxRectangle x="240" y="170" width="50" height="40" as="alternateBounds" />
          </mxGeometry>
        </mxCell>
        <mxCell id="58TWu8AOUMXrwjDCKBES-4" value="Capco Bank System Context" style="text;html=1;align=center;verticalAlign=middle;resizable=0;points=[];autosize=1;strokeColor=none;fillColor=none;" vertex="1" parent="58TWu8AOUMXrwjDCKBES-3">
          <mxGeometry y="8" width="170" height="30" as="geometry" />
        </mxCell>
        <mxCell id="58TWu8AOUMXrwjDCKBES-5" value="Core Banking System" style="whiteSpace=wrap;html=1;aspect=fixed;" vertex="1" parent="58TWu8AOUMXrwjDCKBES-3">
          <mxGeometry x="259" y="85" width="110" height="110" as="geometry" />
        </mxCell>
        <mxCell id="58TWu8AOUMXrwjDCKBES-6" style="edgeStyle=orthogonalEdgeStyle;rounded=0;orthogonalLoop=1;jettySize=auto;html=1;" edge="1" parent="58TWu8AOUMXrwjDCKBES-3" source="58TWu8AOUMXrwjDCKBES-8" target="58TWu8AOUMXrwjDCKBES-5">
          <mxGeometry relative="1" as="geometry" />
        </mxCell>
        <mxCell id="58TWu8AOUMXrwjDCKBES-7" value="connectiong" style="edgeLabel;html=1;align=center;verticalAlign=middle;resizable=0;points=[];" vertex="1" connectable="0" parent="58TWu8AOUMXrwjDCKBES-6">
          <mxGeometry x="0.2831" relative="1" as="geometry">
            <mxPoint as="offset" />
          </mxGeometry>
        </mxCell>
        <mxCell id="58TWu8AOUMXrwjDCKBES-8" value="CapcoBank System" style="whiteSpace=wrap;html=1;aspect=fixed;" vertex="1" parent="58TWu8AOUMXrwjDCKBES-3">
          <mxGeometry x="32" y="90" width="100" height="100" as="geometry" />
        </mxCell>
      </root>
    </mxGraphModel>
  </diagram>
</mxfile>
